<svg width="76" height="19" viewBox="0 0 76 19" fill="none" xmlns="http://www.w3.org/2000/svg">
<path d="M13.2546 9.39432C11.8822 10.9277 9.88783 11.8927 7.66803 11.8927C5.44824 11.8927 3.45382 10.9277 2.08142 9.39432C3.45382 7.86095 5.44824 6.89595 7.66803 6.89595C9.88783 6.89595 11.8822 7.86095 13.2546 9.39432Z" fill="white"/>
<path fill-rule="evenodd" clip-rule="evenodd" d="M0.172852 14.391C0.172852 10.2516 3.52852 6.89595 7.66795 6.89595C5.44815 6.89595 3.45375 7.86095 2.08135 9.39432C3.45375 10.9277 5.44816 11.8927 7.66796 11.8927C9.88775 11.8927 11.8822 10.9277 13.2546 9.39432C14.4414 10.7203 15.163 12.4714 15.163 14.391V17.2225C15.163 17.5905 14.8648 17.8888 14.4968 17.8888H0.839082C0.471133 17.8888 0.172852 17.5905 0.172852 17.2225V14.391ZM13.2546 9.39432C13.2546 9.39432 13.2546 9.39433 13.2546 9.39432Z" fill="#CDD0D8"/>
<path fill-rule="evenodd" clip-rule="evenodd" d="M4.85662 11.3476C3.78643 10.9143 2.83908 10.2409 2.08135 9.39432C3.45375 7.86095 5.44816 6.89595 7.66796 6.89595C9.88775 6.89595 11.8822 7.86094 13.2546 9.39431C13.2546 9.39431 13.2546 9.39431 13.2546 9.39431C14.4414 8.06829 15.163 6.31721 15.163 4.39759V1.5661C15.163 1.19816 14.8648 0.899873 14.4968 0.899873L0.839082 0.899872C0.471134 0.899872 0.172852 1.19815 0.172852 1.5661L0.172852 4.39758C0.172851 7.54282 2.11018 10.2356 4.85662 11.3476Z" fill="#CDD0D8"/>
<path d="M26.8702 5.70929V13.2554H25.3567V10.0445H22.1242V13.2554H20.6106V5.70929H22.1242V8.81207H25.3567V5.70929H26.8702Z" fill="#CDD0D8"/>
<path d="M31.0195 13.3527C30.4429 13.3527 29.924 13.2266 29.4627 12.9744C29.0014 12.7149 28.6374 12.3509 28.3708 11.8824C28.1113 11.4139 27.9816 10.8734 27.9816 10.2608C27.9816 9.64813 28.1149 9.10758 28.3816 8.6391C28.6555 8.17062 29.0266 7.81024 29.4951 7.55799C29.9636 7.29852 30.4861 7.16879 31.0627 7.16879C31.6393 7.16879 32.1619 7.29852 32.6303 7.55799C33.0988 7.81024 33.4664 8.17062 33.7331 8.6391C34.007 9.10758 34.1439 9.64813 34.1439 10.2608C34.1439 10.8734 34.0034 11.4139 33.7223 11.8824C33.4484 12.3509 33.0736 12.7149 32.5979 12.9744C32.1294 13.2266 31.6033 13.3527 31.0195 13.3527ZM31.0195 12.0338C31.2934 12.0338 31.5492 11.9689 31.7871 11.8392C32.0321 11.7022 32.2267 11.5004 32.3709 11.2338C32.515 10.9671 32.5871 10.6428 32.5871 10.2608C32.5871 9.69138 32.4357 9.25533 32.133 8.95262C31.8375 8.6427 31.4736 8.48774 31.0411 8.48774C30.6087 8.48774 30.2447 8.6427 29.9492 8.95262C29.6609 9.25533 29.5167 9.69138 29.5167 10.2608C29.5167 10.8301 29.6573 11.2698 29.9384 11.5797C30.2267 11.8824 30.5871 12.0338 31.0195 12.0338Z" fill="#CDD0D8"/>
<path d="M40.9084 7.26609V13.2554H39.384V12.4987C39.1894 12.7581 38.9335 12.9635 38.6164 13.1149C38.3065 13.259 37.9677 13.3311 37.6002 13.3311C37.1317 13.3311 36.7173 13.2338 36.3569 13.0392C35.9965 12.8374 35.7118 12.5455 35.5028 12.1635C35.301 11.7743 35.2001 11.313 35.2001 10.7797V7.26609H36.7137V10.5635C36.7137 11.0392 36.8326 11.4067 37.0704 11.6662C37.3083 11.9185 37.6326 12.0446 38.0434 12.0446C38.4614 12.0446 38.7894 11.9185 39.0272 11.6662C39.2651 11.4067 39.384 11.0392 39.384 10.5635V7.26609H40.9084Z" fill="#CDD0D8"/>
<path d="M43.9153 8.19584C44.1099 7.87871 44.3621 7.63006 44.6721 7.44987C44.9892 7.26969 45.3496 7.1796 45.7532 7.1796V8.76883H45.3532C44.8775 8.76883 44.5171 8.88054 44.2721 9.10397C44.0342 9.3274 43.9153 9.7166 43.9153 10.2716V13.2554H42.4017V7.26609H43.9153V8.19584Z" fill="#CDD0D8"/>
<path d="M49.1186 7.16879C49.5655 7.16879 49.9583 7.25888 50.297 7.43906C50.6358 7.61204 50.9025 7.83907 51.0971 8.12016V7.26609H52.6214V13.2987C52.6214 13.8537 52.5097 14.3474 52.2863 14.7798C52.0629 15.2195 51.7277 15.5654 51.2809 15.8177C50.834 16.0771 50.2934 16.2069 49.6592 16.2069C48.8087 16.2069 48.1096 16.0087 47.5618 15.6123C47.0213 15.2159 46.715 14.6753 46.6429 13.9906H48.1456C48.2249 14.2645 48.3943 14.4807 48.6538 14.6393C48.9204 14.805 49.2412 14.8879 49.6159 14.8879C50.0556 14.8879 50.4124 14.7546 50.6862 14.4879C50.9601 14.2284 51.0971 13.832 51.0971 13.2987V12.3689C50.9025 12.65 50.6322 12.8843 50.2862 13.0717C49.9475 13.259 49.5583 13.3527 49.1186 13.3527C48.6141 13.3527 48.1528 13.223 47.7348 12.9635C47.3168 12.7041 46.9852 12.3401 46.7402 11.8716C46.5023 11.3959 46.3834 10.8518 46.3834 10.2391C46.3834 9.63372 46.5023 9.09677 46.7402 8.62829C46.9852 8.1598 47.3132 7.79943 47.724 7.54717C48.142 7.29491 48.6069 7.16879 49.1186 7.16879ZM51.0971 10.2608C51.0971 9.89319 51.025 9.57966 50.8808 9.3202C50.7367 9.05352 50.5421 8.85172 50.297 8.71477C50.052 8.57063 49.7889 8.49855 49.5078 8.49855C49.2267 8.49855 48.9673 8.56702 48.7294 8.70396C48.4916 8.8409 48.297 9.04271 48.1456 9.30939C48.0015 9.56885 47.9294 9.87877 47.9294 10.2391C47.9294 10.5995 48.0015 10.9166 48.1456 11.1905C48.297 11.4572 48.4916 11.6626 48.7294 11.8068C48.9745 11.9509 49.234 12.023 49.5078 12.023C49.7889 12.023 50.052 11.9545 50.297 11.8176C50.5421 11.6734 50.7367 11.4716 50.8808 11.2121C51.025 10.9455 51.0971 10.6283 51.0971 10.2608Z" fill="#CDD0D8"/>
<path d="M55.6132 5.25522V13.2554H54.0997V5.25522H55.6132Z" fill="#CDD0D8"/>
<path d="M56.7194 10.2391C56.7194 9.63372 56.8384 9.09677 57.0762 8.62829C57.3213 8.1598 57.6492 7.79943 58.06 7.54717C58.478 7.29491 58.9429 7.16879 59.4546 7.16879C59.9015 7.16879 60.2907 7.25888 60.6222 7.43906C60.961 7.61925 61.2313 7.84628 61.4331 8.12016V7.26609H62.9574V13.2554H61.4331V12.3797C61.2385 12.6608 60.9682 12.8951 60.6222 13.0825C60.2835 13.2626 59.8907 13.3527 59.4438 13.3527C58.9393 13.3527 58.478 13.223 58.06 12.9635C57.6492 12.7041 57.3213 12.3401 57.0762 11.8716C56.8384 11.3959 56.7194 10.8518 56.7194 10.2391ZM61.4331 10.2608C61.4331 9.89319 61.361 9.57966 61.2169 9.3202C61.0727 9.05352 60.8781 8.85172 60.6331 8.71477C60.388 8.57063 60.1249 8.49855 59.8438 8.49855C59.5628 8.49855 59.3033 8.56702 59.0654 8.70396C58.8276 8.8409 58.633 9.04271 58.4816 9.30939C58.3375 9.56885 58.2654 9.87877 58.2654 10.2391C58.2654 10.5995 58.3375 10.9166 58.4816 11.1905C58.633 11.4572 58.8276 11.6626 59.0654 11.8068C59.3105 11.9509 59.57 12.023 59.8438 12.023C60.1249 12.023 60.388 11.9545 60.6331 11.8176C60.8781 11.6734 61.0727 11.4716 61.2169 11.2121C61.361 10.9455 61.4331 10.6283 61.4331 10.2608Z" fill="#CDD0D8"/>
<path d="M66.7276 13.3527C66.2375 13.3527 65.7979 13.2663 65.4087 13.0933C65.0195 12.9131 64.7096 12.6716 64.4789 12.3689C64.2555 12.0662 64.133 11.7311 64.1114 11.3635H65.6357C65.6646 11.5941 65.7763 11.7851 65.9709 11.9365C66.1727 12.0878 66.4213 12.1635 66.7168 12.1635C67.0051 12.1635 67.2286 12.1059 67.3871 11.9905C67.5529 11.8752 67.6358 11.7275 67.6358 11.5473C67.6358 11.3527 67.5349 11.2085 67.3331 11.1148C67.1385 11.0139 66.8249 10.9058 66.3925 10.7905C65.9456 10.6824 65.5781 10.5707 65.2898 10.4554C65.0087 10.34 64.7636 10.1635 64.5546 9.92562C64.3528 9.68777 64.2519 9.36704 64.2519 8.96343C64.2519 8.63189 64.3456 8.32918 64.533 8.0553C64.7276 7.78141 65.0015 7.56519 65.3546 7.40663C65.715 7.24807 66.1366 7.16879 66.6195 7.16879C67.3331 7.16879 67.9025 7.34897 68.3277 7.70934C68.7529 8.0625 68.9872 8.5418 69.0304 9.14722H67.5817C67.5601 8.90937 67.4592 8.72198 67.279 8.58504C67.106 8.44089 66.8718 8.36882 66.5763 8.36882C66.3024 8.36882 66.0898 8.41927 65.9384 8.52017C65.7943 8.62108 65.7222 8.76162 65.7222 8.94181C65.7222 9.14361 65.8231 9.29857 66.0249 9.40669C66.2267 9.50759 66.5403 9.6121 66.9655 9.72021C67.3979 9.82832 67.7547 9.94003 68.0358 10.0554C68.3169 10.1707 68.5583 10.3509 68.7601 10.5959C68.9691 10.8338 69.0773 11.1509 69.0845 11.5473C69.0845 11.8932 68.9872 12.2032 68.7926 12.477C68.6052 12.7509 68.3313 12.9671 67.9709 13.1257C67.6178 13.2771 67.2033 13.3527 66.7276 13.3527Z" fill="#CDD0D8"/>
<path d="M72.6188 13.3527C72.1287 13.3527 71.6891 13.2663 71.2999 13.0933C70.9107 12.9131 70.6008 12.6716 70.3701 12.3689C70.1467 12.0662 70.0242 11.7311 70.0026 11.3635H71.5269C71.5558 11.5941 71.6675 11.7851 71.8621 11.9365C72.0639 12.0878 72.3125 12.1635 72.608 12.1635C72.8963 12.1635 73.1198 12.1059 73.2783 11.9905C73.4441 11.8752 73.527 11.7275 73.527 11.5473C73.527 11.3527 73.4261 11.2085 73.2243 11.1148C73.0297 11.0139 72.7162 10.9058 72.2837 10.7905C71.8368 10.6824 71.4693 10.5707 71.181 10.4554C70.8999 10.34 70.6548 10.1635 70.4458 9.92562C70.244 9.68777 70.1431 9.36704 70.1431 8.96343C70.1431 8.63189 70.2368 8.32918 70.4242 8.0553C70.6188 7.78141 70.8927 7.56519 71.2458 7.40663C71.6062 7.24807 72.0278 7.16879 72.5107 7.16879C73.2243 7.16879 73.7937 7.34897 74.2189 7.70934C74.6441 8.0625 74.8784 8.5418 74.9216 9.14722H73.4729C73.4513 8.90937 73.3504 8.72198 73.1702 8.58504C72.9972 8.44089 72.763 8.36882 72.4675 8.36882C72.1936 8.36882 71.981 8.41927 71.8296 8.52017C71.6855 8.62108 71.6134 8.76162 71.6134 8.94181C71.6134 9.14361 71.7143 9.29857 71.9161 9.40669C72.1179 9.50759 72.4315 9.6121 72.8567 9.72021C73.2891 9.82832 73.6459 9.94003 73.927 10.0554C74.2081 10.1707 74.4495 10.3509 74.6513 10.5959C74.8604 10.8338 74.9685 11.1509 74.9757 11.5473C74.9757 11.8932 74.8784 12.2032 74.6838 12.477C74.4964 12.7509 74.2225 12.9671 73.8621 13.1257C73.509 13.2771 73.0945 13.3527 72.6188 13.3527Z" fill="#CDD0D8"/>
</svg>
