<svg width="57" height="19" viewBox="0 0 57 19" fill="none" xmlns="http://www.w3.org/2000/svg">
<path d="M5.41599 8.74496C5.73347 7.56027 6.95123 6.34251 8.13592 6.02503L15.5218 4.04568C16.7065 3.72819 17.4095 4.4312 17.0921 5.6159L15.1127 13.0018C14.7952 14.1865 13.5775 15.4043 12.3928 15.7217L5.00686 17.7011C3.82216 18.0186 3.11915 17.3156 3.43664 16.1309L5.41599 8.74496Z" fill="#CDD0D8"/>
<path d="M2.45505 5.78393C2.77253 4.59924 3.99029 3.38148 5.17498 3.064L12.5609 1.08465C13.7456 0.767163 14.4486 1.47017 14.1311 2.65487L12.1518 10.0408C11.8343 11.2255 10.6165 12.4432 9.43184 12.7607L2.04592 14.7401C0.861228 15.0575 0.158216 14.3545 0.475702 13.1698L2.45505 5.78393Z" fill="#CDD0D8"/>
<path d="M23.955 12.2608H26.4956V13.2554H22.7225V5.74171H23.955V12.2608Z" fill="#CDD0D8"/>
<path d="M27.1155 10.2499C27.1155 9.65173 27.238 9.12199 27.4831 8.66071C27.7353 8.19944 28.0741 7.84267 28.4993 7.59041C28.9317 7.33095 29.4074 7.20121 29.9264 7.20121C30.3948 7.20121 30.8021 7.29491 31.148 7.4823C31.5012 7.66249 31.7823 7.88952 31.9913 8.1634V7.29852H33.2346V13.2554H31.9913V12.3689C31.7823 12.65 31.4976 12.8843 31.1372 13.0716C30.7768 13.259 30.366 13.3527 29.9047 13.3527C29.393 13.3527 28.9245 13.223 28.4993 12.9635C28.0741 12.6969 27.7353 12.3293 27.4831 11.8608C27.238 11.3851 27.1155 10.8482 27.1155 10.2499ZM31.9913 10.2716C31.9913 9.86075 31.9048 9.50398 31.7318 9.20127C31.566 8.89856 31.3462 8.66792 31.0723 8.50936C30.7985 8.3508 30.503 8.27151 30.1858 8.27151C29.8687 8.27151 29.5732 8.3508 29.2993 8.50936C29.0254 8.66072 28.802 8.88775 28.629 9.19046C28.4633 9.48596 28.3804 9.83913 28.3804 10.2499C28.3804 10.6608 28.4633 11.0211 28.629 11.3311C28.802 11.641 29.0254 11.8788 29.2993 12.0446C29.5804 12.2032 29.8759 12.2824 30.1858 12.2824C30.503 12.2824 30.7985 12.2032 31.0723 12.0446C31.3462 11.886 31.566 11.6554 31.7318 11.3527C31.9048 11.0428 31.9913 10.6824 31.9913 10.2716Z" fill="#CDD0D8"/>
<path d="M40.2157 7.29852L36.5615 16.0555H35.2858L36.4966 13.1581L34.1506 7.29852H35.5236L37.1994 11.8392L38.94 7.29852H40.2157Z" fill="#CDD0D8"/>
<path d="M46.6054 10.131C46.6054 10.3545 46.591 10.5563 46.5621 10.7364H42.0107C42.0467 11.2121 42.2233 11.5941 42.5404 11.8824C42.8575 12.1707 43.2467 12.3149 43.708 12.3149C44.3711 12.3149 44.8396 12.0374 45.1134 11.4824H46.4432C46.263 12.0302 45.9351 12.4806 45.4594 12.8338C44.9909 13.1798 44.4071 13.3527 43.708 13.3527C43.1386 13.3527 42.6269 13.2266 42.1728 12.9743C41.726 12.7149 41.3728 12.3545 41.1133 11.8932C40.8611 11.4248 40.7349 10.8842 40.7349 10.2716C40.7349 9.65894 40.8575 9.12199 41.1025 8.66071C41.3548 8.19223 41.7043 7.83186 42.1512 7.5796C42.6053 7.32734 43.1242 7.20121 43.708 7.20121C44.2702 7.20121 44.7711 7.32374 45.2107 7.56879C45.6504 7.81384 45.9927 8.1598 46.2378 8.60666C46.4828 9.04631 46.6054 9.55443 46.6054 10.131ZM45.3189 9.74183C45.3116 9.28776 45.1495 8.92379 44.8324 8.6499C44.5152 8.37602 44.1224 8.23908 43.6539 8.23908C43.2287 8.23908 42.8647 8.37602 42.562 8.6499C42.2593 8.91658 42.0791 9.28055 42.0215 9.74183H45.3189Z" fill="#CDD0D8"/>
<path d="M49.0507 8.1634C49.2309 7.86069 49.4687 7.62645 49.7642 7.46068C50.067 7.2877 50.4237 7.20121 50.8345 7.20121V8.47693H50.521C50.0381 8.47693 49.6705 8.59945 49.4183 8.8445C49.1732 9.08956 49.0507 9.51479 49.0507 10.1202V13.2554H47.8182V7.29852H49.0507V8.1634Z" fill="#CDD0D8"/>
<path d="M54.1297 13.3527C53.6612 13.3527 53.2395 13.2699 52.8648 13.1041C52.4972 12.9311 52.2053 12.7005 51.9891 12.4122C51.7728 12.1167 51.6575 11.7887 51.6431 11.4284H52.9188C52.9404 11.6806 53.0594 11.8932 53.2756 12.0662C53.499 12.232 53.7765 12.3149 54.108 12.3149C54.454 12.3149 54.7207 12.25 54.9081 12.1203C55.1027 11.9833 55.2 11.8104 55.2 11.6013C55.2 11.3779 55.0918 11.2121 54.8756 11.104C54.6666 10.9959 54.3315 10.877 53.8702 10.7473C53.4233 10.6247 53.0594 10.5058 52.7783 10.3905C52.4972 10.2752 52.2521 10.0986 52.0431 9.86075C51.8413 9.6229 51.7404 9.30938 51.7404 8.92018C51.7404 8.60306 51.8341 8.31476 52.0215 8.05529C52.2089 7.78862 52.4756 7.5796 52.8215 7.42825C53.1747 7.27689 53.5783 7.20121 54.0324 7.20121C54.7098 7.20121 55.254 7.37419 55.6648 7.72015C56.0829 8.0589 56.3063 8.52377 56.3351 9.11478H55.1027C55.081 8.84811 54.9729 8.63549 54.7783 8.47693C54.5837 8.31836 54.3206 8.23908 53.9891 8.23908C53.6648 8.23908 53.4161 8.30034 53.2431 8.42287C53.0702 8.5454 52.9837 8.70756 52.9837 8.90937C52.9837 9.06793 53.0413 9.20127 53.1567 9.30938C53.272 9.41749 53.4125 9.50398 53.5783 9.56885C53.7441 9.62651 53.9891 9.70218 54.3134 9.79588C54.7459 9.9112 55.099 10.0301 55.3729 10.1526C55.654 10.268 55.8955 10.4409 56.0973 10.6716C56.2991 10.9022 56.4036 11.2085 56.4108 11.5905C56.4108 11.9293 56.3171 12.232 56.1297 12.4987C55.9423 12.7653 55.6756 12.9743 55.3297 13.1257C54.9909 13.2771 54.5909 13.3527 54.1297 13.3527Z" fill="#CDD0D8"/>
</svg>
