<svg width="74" height="19" viewBox="0 0 74 19" fill="none" xmlns="http://www.w3.org/2000/svg">
<path fill-rule="evenodd" clip-rule="evenodd" d="M9.37274 14.2078C12.0312 14.2078 14.1863 12.0527 14.1863 9.39432C14.1863 6.73588 12.0312 4.5808 9.37274 4.5808C6.71431 4.5808 4.55922 6.73588 4.55922 9.39432C4.55922 12.0527 6.71431 14.2078 9.37274 14.2078ZM9.37274 17.8888C14.0641 17.8888 17.8672 14.0857 17.8672 9.39432C17.8672 4.70296 14.0641 0.899872 9.37274 0.899872C4.68139 0.899872 0.878296 4.70296 0.878296 9.39432C0.878296 14.0857 4.68139 17.8888 9.37274 17.8888Z" fill="#CDD0D8"/>
<path d="M9.46993 9.5803C10.3545 8.69569 11.7888 8.69569 12.6734 9.5803L17.0781 13.9851C17.9627 14.8697 17.9627 16.3039 17.0781 17.1885V17.1885C16.1935 18.0731 14.7593 18.0731 13.8747 17.1885L9.46993 12.7838C8.58532 11.8992 8.58532 10.4649 9.46993 9.5803V9.5803Z" fill="#CDD0D8"/>
<path d="M10.7067 14.0206L13.5042 16.8181C14.846 16.0698 15.9639 14.9682 16.7321 13.6391L13.9575 10.8646C13.4702 12.3856 12.2469 13.5773 10.7067 14.0206Z" fill="white"/>
<path d="M31.5818 14.0663C31.3368 14.369 31.0377 14.5996 30.6845 14.7582C30.3385 14.9167 29.9566 14.996 29.5385 14.996C28.9763 14.996 28.4682 14.8735 28.0142 14.6284C27.5601 14.3906 27.0412 13.9654 26.4574 13.3527C25.7726 13.2662 25.16 13.0464 24.6195 12.6933C24.0861 12.3401 23.6681 11.886 23.3654 11.3311C23.0699 10.7689 22.9221 10.149 22.9221 9.47154C22.9221 8.72918 23.0987 8.06249 23.4519 7.47149C23.8122 6.87327 24.3059 6.40479 24.933 6.06604C25.5672 5.72729 26.2772 5.55792 27.0628 5.55792C27.8484 5.55792 28.5547 5.72729 29.1818 6.06604C29.8088 6.40479 30.3025 6.87327 30.6629 7.47149C31.0232 8.06249 31.2034 8.72918 31.2034 9.47154C31.2034 10.3508 30.9548 11.122 30.4575 11.7851C29.9674 12.4482 29.3151 12.9095 28.5007 13.1689C28.6808 13.3563 28.8538 13.4897 29.0196 13.569C29.1926 13.6554 29.3764 13.6987 29.571 13.6987C30.0394 13.6987 30.4503 13.5113 30.8034 13.1365L31.5818 14.0663ZM24.6951 9.47154C24.6951 9.94002 24.796 10.3581 24.9979 10.7256C25.2069 11.0932 25.4916 11.3815 25.8519 11.5905C26.2123 11.7923 26.6159 11.8932 27.0628 11.8932C27.5096 11.8932 27.9132 11.7923 28.2736 11.5905C28.634 11.3815 28.9151 11.0932 29.1169 10.7256C29.3259 10.3581 29.4304 9.94002 29.4304 9.47154C29.4304 9.00306 29.3259 8.58503 29.1169 8.21745C28.9151 7.84988 28.634 7.56518 28.2736 7.36338C27.9132 7.15436 27.5096 7.04985 27.0628 7.04985C26.6159 7.04985 26.2123 7.15436 25.8519 7.36338C25.4916 7.56518 25.2069 7.84988 24.9979 8.21745C24.796 8.58503 24.6951 9.00306 24.6951 9.47154Z" fill="#CDD0D8"/>
<path d="M38.2604 7.43905V13.2554H36.6603V12.5635C36.4369 12.8158 36.1702 13.0104 35.8603 13.1473C35.5504 13.2771 35.2153 13.3419 34.8549 13.3419C34.0909 13.3419 33.4855 13.1221 33.0386 12.6824C32.5918 12.2428 32.3683 11.5905 32.3683 10.7256V7.43905H34.0549V10.477C34.0549 11.4139 34.4477 11.8824 35.2333 11.8824C35.6369 11.8824 35.9612 11.7527 36.2063 11.4932C36.4513 11.2265 36.5739 10.8337 36.5739 10.3148V7.43905H38.2604Z" fill="#CDD0D8"/>
<path d="M42.5905 13.3419C41.9779 13.3419 41.4265 13.2158 40.9364 12.9635C40.4535 12.7041 40.0751 12.3473 39.8012 11.8932C39.5273 11.4392 39.3904 10.9238 39.3904 10.3472C39.3904 9.77065 39.5273 9.25532 39.8012 8.80125C40.0751 8.34719 40.4535 7.99402 40.9364 7.74176C41.4265 7.4823 41.9779 7.35256 42.5905 7.35256C43.2031 7.35256 43.7509 7.4823 44.2338 7.74176C44.7167 7.99402 45.0951 8.34719 45.3689 8.80125C45.6428 9.25532 45.7798 9.77065 45.7798 10.3472C45.7798 10.9238 45.6428 11.4392 45.3689 11.8932C45.0951 12.3473 44.7167 12.7041 44.2338 12.9635C43.7509 13.2158 43.2031 13.3419 42.5905 13.3419ZM42.5905 11.9581C43.0229 11.9581 43.3761 11.814 43.65 11.5257C43.9311 11.2302 44.0716 10.8373 44.0716 10.3472C44.0716 9.85714 43.9311 9.46794 43.65 9.17964C43.3761 8.88414 43.0229 8.73639 42.5905 8.73639C42.158 8.73639 41.8013 8.88414 41.5202 9.17964C41.2391 9.46794 41.0986 9.85714 41.0986 10.3472C41.0986 10.8373 41.2391 11.2302 41.5202 11.5257C41.8013 11.814 42.158 11.9581 42.5905 11.9581Z" fill="#CDD0D8"/>
<path d="M50.6585 12.9743C50.4928 13.0969 50.2874 13.1906 50.0423 13.2554C49.8045 13.3131 49.5522 13.3419 49.2855 13.3419C48.5936 13.3419 48.0567 13.1653 47.6747 12.8122C47.2999 12.459 47.1125 11.9401 47.1125 11.2554V8.86612H46.2152V7.56879H47.1125V6.15253H48.799V7.56879H50.2477V8.86612H48.799V11.2338C48.799 11.4788 48.8603 11.6698 48.9828 11.8067C49.1125 11.9365 49.2927 12.0013 49.5234 12.0013C49.79 12.0013 50.0171 11.9293 50.2045 11.7851L50.6585 12.9743Z" fill="#CDD0D8"/>
<path d="M51.6053 7.43905H53.2918V13.2554H51.6053V7.43905ZM52.4485 6.62822C52.1386 6.62822 51.8864 6.53813 51.6918 6.35794C51.4972 6.17776 51.3999 5.95433 51.3999 5.68765C51.3999 5.42098 51.4972 5.19755 51.6918 5.01736C51.8864 4.83718 52.1386 4.74709 52.4485 4.74709C52.7584 4.74709 53.0107 4.83357 53.2053 5.00655C53.3999 5.17953 53.4972 5.39575 53.4972 5.65522C53.4972 5.93631 53.3999 6.17055 53.2053 6.35794C53.0107 6.53813 52.7584 6.62822 52.4485 6.62822Z" fill="#CDD0D8"/>
<path d="M60.5545 10.3689C60.5545 10.3905 60.5437 10.5418 60.5221 10.8229H56.1219C56.2012 11.1833 56.3886 11.468 56.6841 11.677C56.9796 11.886 57.3472 11.9905 57.7869 11.9905C58.0896 11.9905 58.3562 11.9473 58.5869 11.8608C58.8247 11.7671 59.0445 11.623 59.2464 11.4284L60.1437 12.4014C59.5959 13.0284 58.7959 13.3419 57.7436 13.3419C57.0877 13.3419 56.5075 13.2158 56.003 12.9635C55.4985 12.7041 55.1093 12.3473 54.8354 11.8932C54.5615 11.4392 54.4246 10.9238 54.4246 10.3472C54.4246 9.77786 54.5579 9.26613 54.8246 8.81206C55.0985 8.35079 55.4697 7.99402 55.9382 7.74176C56.4138 7.4823 56.9436 7.35256 57.5274 7.35256C58.0968 7.35256 58.6121 7.47509 59.0734 7.72014C59.5347 7.96519 59.895 8.31836 60.1545 8.77963C60.4212 9.2337 60.5545 9.76344 60.5545 10.3689ZM57.5382 8.62828C57.1562 8.62828 56.8355 8.73639 56.576 8.95261C56.3165 9.16883 56.158 9.46433 56.1003 9.83912H58.9653C58.9076 9.47154 58.749 9.17964 58.4896 8.96342C58.2301 8.73999 57.913 8.62828 57.5382 8.62828Z" fill="#CDD0D8"/>
<path d="M65.2126 7.35256C65.9333 7.35256 66.5135 7.56879 66.9532 8.00123C67.4 8.43368 67.6234 9.07513 67.6234 9.92561V13.2554H65.9369V10.1851C65.9369 9.7238 65.836 9.38145 65.6342 9.15802C65.4324 8.92738 65.1405 8.81206 64.7585 8.81206C64.3333 8.81206 63.9945 8.9454 63.7423 9.21208C63.49 9.47154 63.3639 9.86074 63.3639 10.3797V13.2554H61.6773V7.43905H63.2882V8.12015C63.5116 7.8751 63.7891 7.68771 64.1206 7.55798C64.4522 7.42103 64.8162 7.35256 65.2126 7.35256Z" fill="#CDD0D8"/>
<path d="M72.9037 12.9743C72.7379 13.0969 72.5325 13.1906 72.2874 13.2554C72.0496 13.3131 71.7973 13.3419 71.5307 13.3419C70.8387 13.3419 70.3018 13.1653 69.9198 12.8122C69.545 12.459 69.3576 11.9401 69.3576 11.2554V8.86612H68.4603V7.56879H69.3576V6.15253H71.0442V7.56879H72.4928V8.86612H71.0442V11.2338C71.0442 11.4788 71.1054 11.6698 71.2279 11.8067C71.3577 11.9365 71.5379 12.0013 71.7685 12.0013C72.0352 12.0013 72.2622 11.9293 72.4496 11.7851L72.9037 12.9743Z" fill="#CDD0D8"/>
</svg>
