<svg width="84" height="19" viewBox="0 0 84 19" fill="none" xmlns="http://www.w3.org/2000/svg">
<path d="M8.22319 12.2258C11.3508 12.2258 13.8862 9.6904 13.8862 6.56283C13.8862 3.43527 11.3508 0.899872 8.22319 0.899872H0.295044V12.2258H8.22319Z" fill="#CDD0D8"/>
<path d="M0.295044 0.899872L13.8862 17.8888H4.82541L0.295044 12.2258V0.899872Z" fill="#CDD0D8"/>
<path d="M9.27742 12.1278C8.93585 12.1922 8.58345 12.2258 8.22319 12.2258H0.295044V0.899872L9.27742 12.1278Z" fill="white"/>
<path d="M23.2068 12.9774C22.414 12.9774 21.7329 12.8189 21.1635 12.5017C20.6013 12.1774 20.1689 11.7233 19.8662 11.1395C19.5635 10.5485 19.4121 9.85302 19.4121 9.053C19.4121 8.25297 19.5635 7.56106 19.8662 6.97726C20.1689 6.39346 20.6013 5.943 21.1635 5.62587C21.7329 5.30154 22.414 5.13937 23.2068 5.13937C23.7185 5.13937 24.2014 5.21866 24.6555 5.37722C25.1168 5.53578 25.4952 5.76281 25.7907 6.05832L25.3366 7.16105C25.0123 6.88717 24.6807 6.68897 24.342 6.56644C24.0032 6.43671 23.6393 6.37184 23.2501 6.37184C22.4789 6.37184 21.8915 6.60608 21.4878 7.07456C21.0842 7.53584 20.8824 8.19531 20.8824 9.053C20.8824 9.91068 21.0842 10.5738 21.4878 11.0422C21.8915 11.5107 22.4789 11.745 23.2501 11.745C23.6393 11.745 24.0032 11.6837 24.342 11.5612C24.6807 11.4314 25.0123 11.2296 25.3366 10.9558L25.7907 12.0585C25.4952 12.3468 25.1168 12.5738 24.6555 12.7396C24.2014 12.8981 23.7185 12.9774 23.2068 12.9774Z" fill="#CDD0D8"/>
<path d="M28.8995 12.9774C28.3517 12.9774 27.876 12.8657 27.4724 12.6423C27.0688 12.4189 26.7552 12.1017 26.5318 11.6909C26.3084 11.2729 26.1967 10.7828 26.1967 10.2206C26.1967 9.65842 26.3084 9.17192 26.5318 8.7611C26.7552 8.35027 27.0688 8.03315 27.4724 7.80972C27.876 7.58629 28.3517 7.47457 28.8995 7.47457C29.4472 7.47457 29.9229 7.58629 30.3265 7.80972C30.7301 8.03315 31.0437 8.35027 31.2671 8.7611C31.4905 9.17192 31.6022 9.65842 31.6022 10.2206C31.6022 10.7828 31.4905 11.2729 31.2671 11.6909C31.0437 12.1017 30.7301 12.4189 30.3265 12.6423C29.9229 12.8657 29.4472 12.9774 28.8995 12.9774ZM28.8995 11.9504C29.3031 11.9504 29.6274 11.8062 29.8725 11.5179C30.1175 11.2224 30.24 10.79 30.24 10.2206C30.24 9.644 30.1175 9.21516 29.8725 8.93407C29.6274 8.64578 29.3031 8.50163 28.8995 8.50163C28.4958 8.50163 28.1715 8.64578 27.9265 8.93407C27.6814 9.21516 27.5589 9.644 27.5589 10.2206C27.5589 10.79 27.6814 11.2224 27.9265 11.5179C28.1715 11.8062 28.4958 11.9504 28.8995 11.9504Z" fill="#CDD0D8"/>
<path d="M32.7393 12.8693V7.58269H34.0582V8.39352C34.2168 8.10522 34.4366 7.88179 34.7177 7.72323C34.9988 7.55746 35.3231 7.47457 35.6907 7.47457C36.4835 7.47457 37.0024 7.82053 37.2475 8.51244C37.4133 8.18811 37.6511 7.93585 37.961 7.75566C38.2709 7.56827 38.6241 7.47457 39.0205 7.47457C40.2097 7.47457 40.8043 8.19892 40.8043 9.64761V12.8693H39.453V9.70166C39.453 9.29805 39.3845 9.00254 39.2475 8.81515C39.1178 8.62776 38.8944 8.53406 38.5773 8.53406C38.2241 8.53406 37.9466 8.66019 37.7448 8.91245C37.543 9.1575 37.4421 9.49986 37.4421 9.93951V12.8693H36.0907V9.70166C36.0907 9.29805 36.0222 9.00254 35.8853 8.81515C35.7556 8.62776 35.5357 8.53406 35.2258 8.53406C34.8726 8.53406 34.5952 8.66019 34.3934 8.91245C34.1915 9.1575 34.0906 9.49986 34.0906 9.93951V12.8693H32.7393Z" fill="#CDD0D8"/>
<path d="M42.2201 12.8693V7.58269H43.539V8.39352C43.6976 8.10522 43.9174 7.88179 44.1985 7.72323C44.4796 7.55746 44.8039 7.47457 45.1715 7.47457C45.9643 7.47457 46.4833 7.82053 46.7283 8.51244C46.8941 8.18811 47.1319 7.93585 47.4419 7.75566C47.7518 7.56827 48.1049 7.47457 48.5013 7.47457C49.6906 7.47457 50.2852 8.19892 50.2852 9.64761V12.8693H48.9338V9.70166C48.9338 9.29805 48.8653 9.00254 48.7284 8.81515C48.5986 8.62776 48.3752 8.53406 48.0581 8.53406C47.7049 8.53406 47.4274 8.66019 47.2256 8.91245C47.0238 9.1575 46.9229 9.49986 46.9229 9.93951V12.8693H45.5715V9.70166C45.5715 9.29805 45.5031 9.00254 45.3661 8.81515C45.2364 8.62776 45.0166 8.53406 44.7066 8.53406C44.3535 8.53406 44.076 8.66019 43.8742 8.91245C43.6724 9.1575 43.5715 9.49986 43.5715 9.93951V12.8693H42.2201Z" fill="#CDD0D8"/>
<path d="M53.4199 12.9774C53.0379 12.9774 52.6956 12.9054 52.3928 12.7612C52.0973 12.6099 51.8631 12.408 51.6901 12.1558C51.5243 11.9035 51.4415 11.6188 51.4415 11.3017C51.4415 10.9125 51.5424 10.6062 51.7442 10.3828C51.946 10.1521 52.2739 9.98636 52.728 9.88545C53.1821 9.78455 53.7911 9.7341 54.5551 9.7341H54.9335V9.50706C54.9335 9.14669 54.8542 8.88723 54.6956 8.72866C54.537 8.5701 54.2704 8.49082 53.8956 8.49082C53.6001 8.49082 53.2974 8.53767 52.9875 8.63136C52.6775 8.71785 52.364 8.85479 52.0469 9.04219L51.6577 8.12324C51.8451 7.99351 52.0649 7.88179 52.3172 7.7881C52.5766 7.68719 52.8469 7.61151 53.128 7.56106C53.4163 7.5034 53.6866 7.47457 53.9388 7.47457C54.71 7.47457 55.283 7.65476 55.6578 8.01513C56.0326 8.36829 56.22 8.91966 56.22 9.66923V12.8693H54.9551V12.0261C54.8325 12.3216 54.6379 12.5558 54.3713 12.7288C54.1046 12.8945 53.7875 12.9774 53.4199 12.9774ZM53.701 12.0477C54.0541 12.0477 54.346 11.9251 54.5767 11.6801C54.8145 11.435 54.9335 11.1251 54.9335 10.7503V10.5125H54.5659C53.8884 10.5125 53.4163 10.5666 53.1496 10.6747C52.8901 10.7756 52.7604 10.963 52.7604 11.2368C52.7604 11.4747 52.8433 11.6693 53.0091 11.8206C53.1748 11.972 53.4055 12.0477 53.701 12.0477Z" fill="#CDD0D8"/>
<path d="M57.5916 12.8693V7.58269H58.9106V8.40433C59.0908 8.10162 59.3322 7.87098 59.6349 7.71242C59.9449 7.55386 60.2908 7.47457 60.6728 7.47457C61.9197 7.47457 62.5431 8.19892 62.5431 9.64761V12.8693H61.1917V9.71247C61.1917 9.30165 61.1125 9.00254 60.9539 8.81515C60.8025 8.62776 60.5647 8.53406 60.2404 8.53406C59.8439 8.53406 59.5268 8.66019 59.289 8.91245C59.0583 9.1575 58.943 9.48544 58.943 9.89626V12.8693H57.5916Z" fill="#CDD0D8"/>
<path d="M65.9482 12.9774C65.4869 12.9774 65.0797 12.8657 64.7265 12.6423C64.3806 12.4189 64.1103 12.1017 63.9157 11.6909C63.7211 11.2729 63.6238 10.7828 63.6238 10.2206C63.6238 9.65121 63.7211 9.16471 63.9157 8.7611C64.1103 8.35027 64.3806 8.03315 64.7265 7.80972C65.0797 7.58629 65.4869 7.47457 65.9482 7.47457C66.323 7.47457 66.6617 7.55746 66.9644 7.72323C67.2672 7.889 67.4942 8.10883 67.6455 8.38271V5.24748H68.9969V12.8693H67.678V11.9936C67.5338 12.2963 67.3068 12.5378 66.9969 12.718C66.687 12.8909 66.3374 12.9774 65.9482 12.9774ZM66.3266 11.9504C66.7302 11.9504 67.0545 11.8062 67.2996 11.5179C67.5446 11.2224 67.6672 10.79 67.6672 10.2206C67.6672 9.644 67.5446 9.21516 67.2996 8.93407C67.0545 8.64578 66.7302 8.50163 66.3266 8.50163C65.923 8.50163 65.5986 8.64578 65.3536 8.93407C65.1085 9.21516 64.986 9.644 64.986 10.2206C64.986 10.79 65.1085 11.2224 65.3536 11.5179C65.5986 11.8062 65.923 11.9504 66.3266 11.9504Z" fill="#CDD0D8"/>
<path d="M72.4415 12.4369V10.2422H70.3009V9.29084H72.4415V7.16105H73.4361V9.29084H75.5767V10.2422H73.4361V12.4369H72.4415Z" fill="#CDD0D8"/>
<path d="M77.0103 12.8693V5.24748H80.3185C81.1546 5.24748 81.7997 5.44929 82.2537 5.85291C82.7078 6.24931 82.9348 6.80789 82.9348 7.52863C82.9348 8.09801 82.7871 8.5701 82.4916 8.94489C82.1961 9.31246 81.7708 9.56112 81.2159 9.69085C81.5834 9.80617 81.8861 10.0837 82.124 10.5233L83.3997 12.8693H81.8753L80.5564 10.4368C80.4266 10.199 80.2717 10.0368 80.0915 9.95032C79.9185 9.86383 79.6951 9.82059 79.4212 9.82059H78.3942V12.8693H77.0103ZM78.3942 8.79353H80.0807C81.0897 8.79353 81.5942 8.38271 81.5942 7.56106C81.5942 6.74663 81.0897 6.33941 80.0807 6.33941H78.3942V8.79353Z" fill="#CDD0D8"/>
</svg>
