<svg width="16" height="16" viewBox="0 0 16 16" fill="none" xmlns="http://www.w3.org/2000/svg">
<path d="M8.1917 15.7553C12.4566 15.7553 15.9139 12.2982 15.9139 8.03366C15.9139 3.76911 12.4566 0.312012 8.1917 0.312012C3.92684 0.312012 0.469482 3.76911 0.469482 8.03366C0.469482 12.2982 3.92684 15.7553 8.1917 15.7553Z" fill="#B9FD50"/>
<path d="M10.4604 7.11715L9.76054 9.32281C9.76054 9.15388 9.2779 5.49548 9.2779 5.49548C8.16783 5.49548 7.57901 6.28218 7.27012 7.11715L6.41585 9.32764C6.41585 9.16836 6.29519 7.13645 6.29519 7.13645C6.25399 6.69659 6.0529 6.28711 5.73001 5.98557C5.40713 5.68403 4.98487 5.51138 4.54321 5.50031L5.45057 11.041C6.60891 11.041 7.23634 10.2543 7.55971 9.41934L8.28367 7.53705C8.28367 7.61427 8.7663 11.041 8.7663 11.041C9.23996 11.0404 9.70112 10.889 10.0829 10.6087C10.4648 10.3284 10.7474 9.93379 10.8899 9.48208L12.5309 5.49548C11.3726 5.49548 10.7644 6.28218 10.4555 7.11715H10.4604Z" fill="#111204"/>
</svg>
