<svg width="38" height="10" viewBox="0 0 38 10" fill="none" xmlns="http://www.w3.org/2000/svg">
<path d="M5.33493 9.05823L1.80124 4.51138L5.22373 0.335204H7.62071L3.76577 4.86969V4.07894L7.74426 9.05823H5.33493ZM0.0591072 9.05823V0.335204H1.99893V9.05823H0.0591072ZM8.59776 9.05823V3.05343H10.4882V9.05823H8.59776ZM10.4882 5.75929L9.69741 5.14152C9.85391 4.44137 10.1175 3.89772 10.4882 3.51058C10.8588 3.12344 11.3736 2.92987 12.0326 2.92987C12.3209 2.92987 12.5721 2.97517 12.7863 3.06578C13.0087 3.14815 13.2023 3.27995 13.367 3.46116L12.2427 4.88205C12.1603 4.79144 12.0573 4.72143 11.9338 4.672C11.8102 4.62258 11.6702 4.59787 11.5137 4.59787C11.2007 4.59787 10.9494 4.69672 10.76 4.8944C10.5788 5.08386 10.4882 5.37215 10.4882 5.75929ZM16.5929 9.19414C15.9751 9.19414 15.415 9.05823 14.9125 8.78641C14.4183 8.50635 14.027 8.12744 13.7387 7.64969C13.4504 7.17195 13.3063 6.63654 13.3063 6.04347C13.3063 5.4504 13.4504 4.91912 13.7387 4.4496C14.027 3.98009 14.4183 3.60943 14.9125 3.3376C15.4067 3.05755 15.9669 2.91752 16.5929 2.91752C17.2189 2.91752 17.779 3.05343 18.2732 3.32525C18.7674 3.59707 19.1587 3.97186 19.447 4.4496C19.7353 4.91912 19.8794 5.4504 19.8794 6.04347C19.8794 6.63654 19.7353 7.17195 19.447 7.64969C19.1587 8.12744 18.7674 8.50635 18.2732 8.78641C17.779 9.05823 17.2189 9.19414 16.5929 9.19414ZM16.5929 7.47672C16.8647 7.47672 17.1036 7.41906 17.3095 7.30374C17.5154 7.18018 17.6719 7.01132 17.779 6.79716C17.8943 6.57476 17.952 6.32353 17.952 6.04347C17.952 5.76341 17.8943 5.52042 17.779 5.31449C17.6637 5.10033 17.5031 4.93559 17.2971 4.82027C17.0994 4.69672 16.8647 4.63494 16.5929 4.63494C16.3293 4.63494 16.0945 4.69672 15.8886 4.82027C15.6827 4.93559 15.5221 5.10033 15.4067 5.31449C15.2914 5.52866 15.2338 5.77577 15.2338 6.05583C15.2338 6.32765 15.2914 6.57476 15.4067 6.79716C15.5221 7.01132 15.6827 7.18018 15.8886 7.30374C16.0945 7.41906 16.3293 7.47672 16.5929 7.47672Z" fill="white"/>
<path d="M24.7867 9.05823V5.63574C24.7867 5.32273 24.6879 5.0715 24.4902 4.88205C24.3007 4.68436 24.0577 4.58552 23.7612 4.58552C23.5553 4.58552 23.3741 4.63082 23.2176 4.72143C23.0611 4.8038 22.9375 4.92735 22.8469 5.09209C22.7563 5.2486 22.711 5.42981 22.711 5.63574L21.982 5.27743C21.982 4.80792 22.085 4.39606 22.2909 4.04187C22.4968 3.68768 22.781 3.41586 23.1434 3.2264C23.5141 3.02872 23.9301 2.92987 24.3913 2.92987C24.8361 2.92987 25.2274 3.03695 25.5651 3.25112C25.9111 3.45704 26.1829 3.73298 26.3806 4.07894C26.5783 4.42489 26.6771 4.8038 26.6771 5.21565V9.05823H24.7867ZM20.8206 9.05823V3.05343H22.711V9.05823H20.8206ZM27.8913 9.05823V3.05343H29.7817V9.05823H27.8913ZM28.8426 2.2256C28.5461 2.2256 28.299 2.12676 28.1013 1.92907C27.9118 1.72314 27.8171 1.47603 27.8171 1.18774C27.8171 0.891204 27.9118 0.644093 28.1013 0.446404C28.299 0.248716 28.5461 0.149871 28.8426 0.149871C29.1392 0.149871 29.3822 0.248716 29.5716 0.446404C29.7611 0.644093 29.8558 0.891204 29.8558 1.18774C29.8558 1.47603 29.7611 1.72314 29.5716 1.92907C29.3822 2.12676 29.1392 2.2256 28.8426 2.2256ZM34.8319 9.05823L33.3863 6.72303L32.9786 6.46356L30.6186 3.05343H32.8303L34.177 5.24036L34.5724 5.48747L37.0188 9.05823H34.8319ZM30.5074 9.05823L32.9662 5.5616L34.0411 6.77245L32.5708 9.05823H30.5074ZM34.5601 6.4512L33.4851 5.24036L34.8442 3.05343H36.8953L34.5601 6.4512Z" fill="#B9FD50"/>
</svg>
