<svg width="42" height="42" viewBox="0 0 42 42" fill="none" xmlns="http://www.w3.org/2000/svg">
<path d="M16.6377 27.5533C16.2666 26.2984 15.285 25.3168 14.0301 24.9457L0.8865 21.0587C0.425479 20.9223 0.425478 20.2694 0.886498 20.133L14.0301 16.246C15.285 15.8749 16.2666 14.8933 16.6377 13.6384L20.5247 0.494802C20.6611 0.033782 21.314 0.033781 21.4504 0.494801L25.3374 13.6384C25.7085 14.8933 26.6901 15.8749 27.945 16.246L41.0886 20.133C41.5496 20.2694 41.5496 20.9223 41.0886 21.0587L27.945 24.9457C26.6901 25.3168 25.7085 26.2984 25.3374 27.5533L21.4504 40.6969C21.314 41.1579 20.6611 41.1579 20.5247 40.6969L16.6377 27.5533Z" fill="#B9FD50" fill-opacity="0.25"/>
</svg>
